<svg xmlns="http://www.w3.org/2000/svg" width="1920" height="919" style="cursor: move;"><g transform="translate(-4167.154078812107,-1770.3851898094827) scale(4.986404777100412)"><path class="link" marker-end="" d="M895,423.5C927.5,423.5 927.5,423.5 960,423.5" style="stroke-width: 0.45; stroke-opacity: 0.327152; stroke: rgb(80, 80, 80); fill: none; opacity: 0.73;"></path><path class="link" marker-end="" d="M895,423.5C927.5,423.5 927.5,469.5 960,469.5" style="stroke-width: 0.45; stroke-opacity: 0.413721; stroke: rgb(80, 80, 80); fill: none; opacity: 0.73;"></path><path class="link" marker-end="" d="M895,423.5C927.5,423.5 927.5,515.5 960,515.5" style="stroke-width: 0.45; stroke-opacity: 0.131078; stroke: rgb(80, 80, 80); fill: none; opacity: 0.73;"></path><path class="link" marker-end="" d="M895,469.5C927.5,469.5 927.5,423.5 960,423.5" style="stroke-width: 0.45; stroke-opacity: 0.263935; stroke: rgb(80, 80, 80); fill: none; opacity: 0.73;"></path><path class="link" marker-end="" d="M895,469.5C927.5,469.5 927.5,469.5 960,469.5" style="stroke-width: 0.45; stroke-opacity: 0.123092; stroke: rgb(80, 80, 80); fill: none; opacity: 0.73;"></path><path class="link" marker-end="" d="M895,469.5C927.5,469.5 927.5,515.5 960,515.5" style="stroke-width: 0.45; stroke-opacity: 0.98535; stroke: rgb(80, 80, 80); fill: none; opacity: 0.73;"></path><path class="link" marker-end="" d="M960,377.5C992.5,377.5 992.5,423.5 1025,423.5" style="stroke-width: 0.45; stroke-opacity: 0.505334; stroke: rgb(80, 80, 80); fill: none; opacity: 0.73;"></path><path class="link" marker-end="" d="M960,377.5C992.5,377.5 992.5,469.5 1025,469.5" style="stroke-width: 0.45; stroke-opacity: 0.0123738; stroke: rgb(80, 80, 80); fill: none; opacity: 0.73;"></path><path class="link" marker-end="" d="M960,377.5C992.5,377.5 992.5,515.5 1025,515.5" style="stroke-width: 0.45; stroke-opacity: 0.436212; stroke: rgb(80, 80, 80); fill: none; opacity: 0.73;"></path><path class="link" marker-end="" d="M960,423.5C992.5,423.5 992.5,423.5 1025,423.5" style="stroke-width: 0.45; stroke-opacity: 0.71092; stroke: rgb(80, 80, 80); fill: none; opacity: 0.73;"></path><path class="link" marker-end="" d="M960,423.5C992.5,423.5 992.5,469.5 1025,469.5" style="stroke-width: 0.45; stroke-opacity: 0.903588; stroke: rgb(80, 80, 80); fill: none; opacity: 0.73;"></path><path class="link" marker-end="" d="M960,423.5C992.5,423.5 992.5,515.5 1025,515.5" style="stroke-width: 0.45; stroke-opacity: 0.299832; stroke: rgb(80, 80, 80); fill: none; opacity: 0.73;"></path><path class="link" marker-end="" d="M960,469.5C992.5,469.5 992.5,423.5 1025,423.5" style="stroke-width: 0.45; stroke-opacity: 0.0215256; stroke: rgb(80, 80, 80); fill: none; opacity: 0.73;"></path><path class="link" marker-end="" d="M960,469.5C992.5,469.5 992.5,469.5 1025,469.5" style="stroke-width: 0.45; stroke-opacity: 0.238757; stroke: rgb(80, 80, 80); fill: none; opacity: 0.73;"></path><path class="link" marker-end="" d="M960,469.5C992.5,469.5 992.5,515.5 1025,515.5" style="stroke-width: 0.45; stroke-opacity: 0.0711502; stroke: rgb(80, 80, 80); fill: none; opacity: 0.73;"></path><path class="link" marker-end="" d="M960,515.5C992.5,515.5 992.5,423.5 1025,423.5" style="stroke-width: 0.45; stroke-opacity: 0.149968; stroke: rgb(80, 80, 80); fill: none; opacity: 0.73;"></path><path class="link" marker-end="" d="M960,515.5C992.5,515.5 992.5,469.5 1025,469.5" style="stroke-width: 0.45; stroke-opacity: 0.308549; stroke: rgb(80, 80, 80); fill: none; opacity: 0.73;"></path><path class="link" marker-end="" d="M960,515.5C992.5,515.5 992.5,515.5 1025,515.5" style="stroke-width: 0.45; stroke-opacity: 0.0913078; stroke: rgb(80, 80, 80); fill: none; opacity: 0.73;"></path><path class="link" marker-end="" d="M1025,377.5C1057.5,377.5 1057.5,377.5 1090,377.5" style="stroke-width: 0.45; stroke-opacity: 0.725256; stroke: rgb(80, 80, 80); fill: none; opacity: 0.73;"></path><path class="link" marker-end="" d="M1025,423.5C1057.5,423.5 1057.5,377.5 1090,377.5" style="stroke-width: 0.45; stroke-opacity: 0.28099; stroke: rgb(80, 80, 80); fill: none; opacity: 0.73;"></path><path class="link" marker-end="" d="M1025,469.5C1057.5,469.5 1057.5,377.5 1090,377.5" style="stroke-width: 0.45; stroke-opacity: 0.488265; stroke: rgb(80, 80, 80); fill: none; opacity: 0.73;"></path><path class="link" marker-end="" d="M1025,515.5C1057.5,515.5 1057.5,377.5 1090,377.5" style="stroke-width: 0.45; stroke-opacity: 0.929973; stroke: rgb(80, 80, 80); fill: none; opacity: 0.73;"></path><path class="link" marker-end="" d="M1025,377.5C1057.5,377.5 1057.5,423.5 1090,423.5" style="stroke-width: 0.45; stroke-opacity: 0.709684; stroke: rgb(80, 80, 80); fill: none; opacity: 0.73;"></path><path class="link" marker-end="" d="M1025,423.5C1057.5,423.5 1057.5,423.5 1090,423.5" style="stroke-width: 0.45; stroke-opacity: 0.0116589; stroke: rgb(80, 80, 80); fill: none; opacity: 0.73;"></path><path class="link" marker-end="" d="M1025,469.5C1057.5,469.5 1057.5,423.5 1090,423.5" style="stroke-width: 0.45; stroke-opacity: 0.0365763; stroke: rgb(80, 80, 80); fill: none; opacity: 0.73;"></path><path class="link" marker-end="" d="M1025,515.5C1057.5,515.5 1057.5,423.5 1090,423.5" style="stroke-width: 0.45; stroke-opacity: 0.698162; stroke: rgb(80, 80, 80); fill: none; opacity: 0.73;"></path><path class="link" marker-end="" d="M895,423.5C927.5,423.5 927.5,377.5 960,377.5" style="stroke-width: 0.45; stroke-opacity: 0.606015; stroke: rgb(80, 80, 80); fill: none; opacity: 0.73;"></path><path class="link" marker-end="" d="M895,469.5C927.5,469.5 927.5,377.5 960,377.5" style="stroke-width: 0.45; stroke-opacity: 0.0567795; stroke: rgb(80, 80, 80); fill: none; opacity: 0.73;"></path><path class="link" marker-end="" d="M960,377.5C992.5,377.5 992.5,377.5 1025,377.5" style="stroke-width: 0.45; stroke-opacity: 0.608931; stroke: rgb(80, 80, 80); fill: none; opacity: 0.73;"></path><path class="link" marker-end="" d="M960,423.5C992.5,423.5 992.5,377.5 1025,377.5" style="stroke-width: 0.45; stroke-opacity: 0.108963; stroke: rgb(80, 80, 80); fill: none; opacity: 0.73;"></path><path class="link" marker-end="" d="M960,469.5C992.5,469.5 992.5,377.5 1025,377.5" style="stroke-width: 0.45; stroke-opacity: 0.199435; stroke: rgb(80, 80, 80); fill: none; opacity: 0.73;"></path><path class="link" marker-end="" d="M960,515.5C992.5,515.5 992.5,377.5 1025,377.5" style="stroke-width: 0.45; stroke-opacity: 0.00709043; stroke: rgb(80, 80, 80); fill: none; opacity: 0.73;"></path><path class="link" marker-end="" d="M1090,377.5C1122.5,377.5 1122.5,423.5 1155,423.5" style="stroke-width: 0.45; stroke-opacity: 0.439188; stroke: rgb(80, 80, 80); fill: none; opacity: 0.73;"></path><path class="link" marker-end="" d="M1090,423.5C1122.5,423.5 1122.5,423.5 1155,423.5" style="stroke-width: 0.45; stroke-opacity: 0.242368; stroke: rgb(80, 80, 80); fill: none; opacity: 0.73;"></path><path class="link" marker-end="" d="M1090,377.5C1122.5,377.5 1122.5,469.5 1155,469.5" style="stroke-width: 0.45; stroke-opacity: 0.312571; stroke: rgb(80, 80, 80); fill: none; opacity: 0.73;"></path><path class="link" marker-end="" d="M1090,423.5C1122.5,423.5 1122.5,469.5 1155,469.5" style="stroke-width: 0.45; stroke-opacity: 0.686894; stroke: rgb(80, 80, 80); fill: none; opacity: 0.73;"></path><path class="link" marker-end="" d="M1025,377.5C1057.5,377.5 1057.5,469.5 1090,469.5" style="stroke-width: 0.45; stroke-opacity: 0.824834; stroke: rgb(80, 80, 80); fill: none; opacity: 0.73;"></path><path class="link" marker-end="" d="M1025,377.5C1057.5,377.5 1057.5,515.5 1090,515.5" style="stroke-width: 0.45; stroke-opacity: 0.561495; stroke: rgb(80, 80, 80); fill: none; opacity: 0.73;"></path><path class="link" marker-end="" d="M1025,423.5C1057.5,423.5 1057.5,469.5 1090,469.5" style="stroke-width: 0.45; stroke-opacity: 0.227097; stroke: rgb(80, 80, 80); fill: none; opacity: 0.73;"></path><path class="link" marker-end="" d="M1025,423.5C1057.5,423.5 1057.5,515.5 1090,515.5" style="stroke-width: 0.45; stroke-opacity: 0.541067; stroke: rgb(80, 80, 80); fill: none; opacity: 0.73;"></path><path class="link" marker-end="" d="M1025,469.5C1057.5,469.5 1057.5,469.5 1090,469.5" style="stroke-width: 0.45; stroke-opacity: 0.558511; stroke: rgb(80, 80, 80); fill: none; opacity: 0.73;"></path><path class="link" marker-end="" d="M1025,469.5C1057.5,469.5 1057.5,515.5 1090,515.5" style="stroke-width: 0.45; stroke-opacity: 0.438914; stroke: rgb(80, 80, 80); fill: none; opacity: 0.73;"></path><path class="link" marker-end="" d="M1025,515.5C1057.5,515.5 1057.5,469.5 1090,469.5" style="stroke-width: 0.45; stroke-opacity: 0.59075; stroke: rgb(80, 80, 80); fill: none; opacity: 0.73;"></path><path class="link" marker-end="" d="M1025,515.5C1057.5,515.5 1057.5,515.5 1090,515.5" style="stroke-width: 0.45; stroke-opacity: 0.859874; stroke: rgb(80, 80, 80); fill: none; opacity: 0.73;"></path><path class="link" marker-end="" d="M1090,469.5C1122.5,469.5 1122.5,423.5 1155,423.5" style="stroke-width: 0.45; stroke-opacity: 0.0293675; stroke: rgb(80, 80, 80); fill: none; opacity: 0.73;"></path><path class="link" marker-end="" d="M1090,469.5C1122.5,469.5 1122.5,469.5 1155,469.5" style="stroke-width: 0.45; stroke-opacity: 0.323159; stroke: rgb(80, 80, 80); fill: none; opacity: 0.73;"></path><path class="link" marker-end="" d="M1090,515.5C1122.5,515.5 1122.5,423.5 1155,423.5" style="stroke-width: 0.45; stroke-opacity: 0.404174; stroke: rgb(80, 80, 80); fill: none; opacity: 0.73;"></path><path class="link" marker-end="" d="M1090,515.5C1122.5,515.5 1122.5,469.5 1155,469.5" style="stroke-width: 0.45; stroke-opacity: 0.136595; stroke: rgb(80, 80, 80); fill: none; opacity: 0.73;"></path><circle r="13" class="node" id="0_0" cx="895" cy="423.5" style="fill: rgb(255, 255, 255); stroke: rgb(51, 51, 51); opacity: 1;"></circle><circle r="13" class="node" id="0_1" cx="895" cy="469.5" style="fill: rgb(255, 255, 255); stroke: rgb(51, 51, 51); opacity: 1;"></circle><circle r="13" class="node" id="1_0" cx="960" cy="377.5" style="fill: rgb(255, 255, 255); stroke: rgb(51, 51, 51); opacity: 1;"></circle><circle r="13" class="node" id="1_1" cx="960" cy="423.5" style="fill: rgb(255, 255, 255); stroke: rgb(51, 51, 51); opacity: 1;"></circle><circle r="13" class="node" id="1_2" cx="960" cy="469.5" style="fill: rgb(255, 255, 255); stroke: rgb(51, 51, 51); opacity: 1;"></circle><circle r="13" class="node" id="1_3" cx="960" cy="515.5" style="fill: rgb(255, 255, 255); stroke: rgb(51, 51, 51); opacity: 1;"></circle><circle r="13" class="node" id="2_0" cx="1025" cy="377.5" style="fill: rgb(255, 255, 255); stroke: rgb(51, 51, 51); opacity: 1;"></circle><circle r="13" class="node" id="2_1" cx="1025" cy="423.5" style="fill: rgb(255, 255, 255); stroke: rgb(51, 51, 51); opacity: 1;"></circle><circle r="13" class="node" id="2_2" cx="1025" cy="469.5" style="fill: rgb(255, 255, 255); stroke: rgb(51, 51, 51); opacity: 1;"></circle><circle r="13" class="node" id="2_3" cx="1025" cy="515.5" style="fill: rgb(255, 255, 255); stroke: rgb(51, 51, 51); opacity: 1;"></circle><circle r="13" class="node" id="3_0" cx="1090" cy="377.5" style="fill: rgb(255, 255, 255); stroke: rgb(51, 51, 51); opacity: 1;"></circle><text class="text" dy=".35em" x="860" y="561.5" style="font-size: 12px;"></text><text class="text" dy=".35em" x="925" y="561.5" style="font-size: 12px;"></text><text class="text" dy=".35em" x="990" y="561.5" style="font-size: 12px;"></text><text class="text" dy=".35em" x="1055" y="561.5" style="font-size: 12px;"></text><circle r="13" class="node" id="3_1" cx="1090" cy="423.5" style="fill: rgb(255, 255, 255); stroke: rgb(51, 51, 51); opacity: 1;"></circle><circle r="13" class="node" id="3_2" cx="1090" cy="469.5" style="fill: rgb(255, 255, 255); stroke: rgb(51, 51, 51); opacity: 1;"></circle><circle r="13" class="node" id="3_3" cx="1090" cy="515.5" style="fill: rgb(255, 255, 255); stroke: rgb(51, 51, 51); opacity: 1;"></circle><circle r="13" class="node" id="4_0" cx="1155" cy="423.5" style="fill: rgb(255, 255, 255); stroke: rgb(51, 51, 51); opacity: 1;"></circle><text class="text" dy=".35em" x="1120" y="561.5" style="font-size: 12px;"></text><circle r="13" class="node" id="4_1" cx="1155" cy="469.5" style="fill: rgb(255, 255, 255); stroke: rgb(51, 51, 51); opacity: 1;"></circle></g><defs><marker id="arrow" viewBox="0 -5 10 10" markerWidth="7" markerHeight="7" orient="auto" refX="48.4"><path d="M0,-5L10,0L0,5" style="stroke: rgb(80, 80, 80); fill: none;"></path></marker></defs></svg>